<?xml version="1.0" encoding="utf-8"?>
<svg version="1.1" id="Isolation_Mode" xmlns="http://www.w3.org/2000/svg" xmlns:xlink="http://www.w3.org/1999/xlink" x="0px"
	 y="0px" viewBox="0 0 131.8 129.5" style="enable-background:new 0 0 131.8 129.5;" xml:space="preserve">
<g>
	<path d="M100.9,117.1c-0.5,0-0.9-0.2-1.2-0.6c-0.5-0.7-0.4-1.6,0.3-2.1c2.1-1.6,4.1-3.3,6-5.1c0.6-0.6,1.5-0.6,2.1,0
		c0.6,0.6,0.6,1.5,0,2.1c-2,1.9-4.1,3.7-6.3,5.3C101.5,117,101.2,117.1,100.9,117.1z"/>
	<g>
		<path d="M63.7,129.5C28.6,129.5,0,100.9,0,65.8S28.6,2.1,63.7,2.1s63.7,28.6,63.7,63.7c0,14.8-5.2,29.2-14.6,40.5
			c-0.5,0.6-1.5,0.7-2.1,0.2c-0.6-0.5-0.7-1.5-0.2-2.1c8.9-10.8,13.9-24.6,13.9-38.6c0-33.5-27.2-60.7-60.7-60.7S3,32.3,3,65.8
			s27.2,60.7,60.7,60.7c7.1,0,14.1-1.2,20.7-3.6c0.8-0.3,1.6,0.1,1.9,0.9c0.3,0.8-0.1,1.6-0.9,1.9C78.4,128.2,71.1,129.5,63.7,129.5
			z"/>
		<path d="M113.7,17.1c-0.4,0-0.8-0.1-1.1-0.4C106.9,10.9,100.3,6.3,93,2.9c-0.8-0.4-1.1-1.2-0.7-2c0.4-0.8,1.2-1.1,2-0.7
			c7.6,3.5,14.5,8.4,20.4,14.3c0.6,0.6,0.6,1.5,0,2.1C114.4,16.9,114.1,17.1,113.7,17.1z"/>
		<path d="M130.3,43.4c-0.6,0-1.2-0.4-1.4-1c-2.2-6.2-5.3-12-9.1-17.4c-0.5-0.7-0.3-1.6,0.3-2.1c0.7-0.5,1.6-0.3,2.1,0.3
			c4,5.6,7.2,11.7,9.5,18.1c0.3,0.8-0.1,1.6-0.9,1.9C130.7,43.4,130.5,43.4,130.3,43.4z"/>
		<g>
			<path d="M60,107.9c-3.3,0-5.2-1.5-6.2-2.8c-3.4-4.3-2.5-12.7-0.6-18.6c0.6-2,1.8-3.6,2.7-4.8c0.8-1.1,1.3-1.8,1.5-2.5
				c-2.9-0.3-11.9-0.4-20.1-0.3c-1.8,0-3.5-0.7-4.7-2c-1.2-1.3-1.9-3-1.9-4.8c0.1-2.8,2-5.1,4.5-6c-1-1.3-1.5-3-1.2-4.8
				c0.3-2.5,2.1-4.5,4.5-5.3c-1-1.3-1.4-3-1.2-4.8c0.4-2.8,2.5-5,5.3-5.5c-0.7-1.1-1.1-2.4-1.1-3.7c0-3.6,2.9-6.6,6.6-6.6
				c0.7,0,17.6-0.2,30.4,3.3c1.6,0.4,6.4,0.9,9.6,1.2l1.1,0.1c0.8,0.1,1.4,0.8,1.3,1.6c-0.1,0.8-0.8,1.4-1.6,1.3l-1.1-0.1
				c-3.7-0.4-8.2-0.8-10.1-1.3c-12.5-3.4-29.5-3.2-29.6-3.2c-2,0-3.6,1.6-3.6,3.6c0,1,0.4,1.9,1.1,2.6c0.7,0.6,0.9,1.6,0.6,2.5
				c-0.3,0.9-1.2,1.5-2.1,1.5c-1.9,0-3.5,1.4-3.7,3.1c-0.2,1.4,0.4,2.7,1.6,3.5c0.7,0.5,1,1.4,0.8,2.2c-0.2,0.8-1,1.4-1.8,1.4
				c-1.9,0-3.5,1.4-3.7,3.1c-0.2,1.4,0.4,2.7,1.6,3.5c0.7,0.5,1,1.3,0.8,2.2c-0.2,0.8-1,1.4-1.8,1.4c-2,0-3.7,1.6-3.8,3.5
				c0,1,0.3,1.9,1,2.6c0.7,0.7,1.6,1.1,2.5,1.1c22.6-0.4,22.8,0.4,23.1,1.9c0.4,2.3-0.8,4-2.1,5.7c-0.9,1.2-1.8,2.4-2.2,3.9
				c-1.7,5.4-2.4,12.7,0.1,15.8c0.8,1,2,1.6,3.5,1.6c0.1-0.6,0.2-1.2,0.3-1.7c1.3-8.7,1.8-11.6,7.8-17c1.5-1.4,2.6-2.9,3.2-4.5
				c2.2-5.8,9.1-11.8,17.9-12.2c0.8,0,1.5,0.6,1.6,1.4c0,0.8-0.6,1.5-1.4,1.6c-7.5,0.3-13.4,5.5-15.3,10.3c-0.8,2.1-2.1,4-4,5.6
				c-5.2,4.8-5.6,6.8-6.9,15.3c-0.1,0.9-0.3,1.9-0.5,2.9c-0.1,0.7-0.7,1.2-1.4,1.3C60.6,107.9,60.3,107.9,60,107.9z"/>
			<path d="M94.9,76.7c-0.8,0-1.5-0.7-1.5-1.5V36.2c0-0.8,0.7-1.5,1.5-1.5c0.8,0,1.5,0.7,1.5,1.5v39.1
				C96.4,76.1,95.8,76.7,94.9,76.7z"/>
		</g>
	</g>
</g>
</svg>
